<?xml version="1.0" encoding="UTF-8"?>
<svg id="_레이어_1" data-name="레이어_1" xmlns="http://www.w3.org/2000/svg" viewBox="0 0 600 600">
  <defs>
    <style>
      .cls-1 {
        fill: #fff;
      }
    </style>
  </defs>
  <path class="cls-1" d="M266.67,33.33H83.33c-27.61,0-50,22.39-50,50v433.33c0,27.61,22.39,50,50,50h183.33V33.33ZM300,33.33v533.33h216.67c27.61,0,50-22.39,50-50V83.33c0-27.61-22.39-50-50-50h-216.67ZM0,83.33C0,37.31,37.31,0,83.33,0h433.33c46.02,0,83.33,37.31,83.33,83.33v433.33c0,46.02-37.31,83.33-83.33,83.33H83.33c-46.02,0-83.33-37.31-83.33-83.33V83.33ZM83.33,133.33c-9.2,0-16.67-7.46-16.67-16.67s7.46-16.67,16.67-16.67h133.33c9.2,0,16.67,7.46,16.67,16.67s-7.46,16.67-16.67,16.67H83.33ZM83.33,200c-9.2,0-16.67-7.46-16.67-16.67s7.46-16.67,16.67-16.67h100c9.2,0,16.67,7.46,16.67,16.67s-7.46,16.67-16.67,16.67h-100ZM83.33,266.67c-9.2,0-16.67-7.46-16.67-16.67s7.46-16.67,16.67-16.67h133.33c9.2,0,16.67,7.46,16.67,16.67s-7.46,16.67-16.67,16.67H83.33ZM83.33,333.33c-9.2,0-16.67-7.46-16.67-16.67s7.46-16.67,16.67-16.67h100c9.2,0,16.67,7.46,16.67,16.67s-7.46,16.67-16.67,16.67h-100Z"/>
</svg>